<svg id="visual" viewBox="0 0 1600 800" width="100%" height="100%" preserveAspectRatio="none" xmlns="http://www.w3.org/2000/svg" xmlns:xlink="http://www.w3.org/1999/xlink" version="1.1">
	<rect x="0" y="0" width="1600" height="800" fill="#043712"></rect>
	<path d="M0 612L229 675L457 602L686 655L914 669L1143 620L1371 633L1600 666L1600 801L1371 801L1143 801L914 801L686 801L457 801L229 801L0 801Z" fill="#bde2d0"></path>
	<path d="M0 675L229 700L457 657L686 675L914 641L1143 699L1371 660L1600 685L1600 801L1371 801L1143 801L914 801L686 801L457 801L229 801L0 801Z" fill="#92d1ae"></path>
	<path d="M0 728L229 709L457 704L686 676L914 695L1143 671L1371 708L1600 676L1600 801L1371 801L1143 801L914 801L686 801L457 801L229 801L0 801Z" fill="#6abf89"></path>
	<path d="M0 720L229 717L457 707L686 705L914 707L1143 718L1371 712L1600 745L1600 801L1371 801L1143 801L914 801L686 801L457 801L229 801L0 801Z" fill="#42ac61"></path>
	<path d="M0 750L229 765L457 757L686 741L914 758L1143 755L1371 762L1600 740L1600 801L1371 801L1143 801L914 801L686 801L457 801L229 801L0 801Z" fill="#0b9934"></path>
</svg>
